<svg width="230" height="195" viewBox="0 0 230 195" fill="none" xmlns="http://www.w3.org/2000/svg">
<g clip-path="url(#clip0_1_64)">
<path d="M74.7019 21.2549L77.1917 32.7189L71.8958 48.6757L63.3635 31.5314L64.5473 21.5853L74.7019 21.2549Z" fill="#FDB4B4"/>
<path d="M77.6543 32.1252H62.9221V50.0859H77.6543V32.1252Z" fill="#00BFA6"/>
<path d="M71.5962 27.0296C77.1527 27.0296 81.6572 22.4845 81.6572 16.8779C81.6572 11.2712 77.1527 6.72617 71.5962 6.72617C66.0396 6.72617 61.5352 11.2712 61.5352 16.8779C61.5352 22.4845 66.0396 27.0296 71.5962 27.0296Z" fill="#FDB4B4"/>
<path d="M62.8385 24.4267C62.8385 24.4267 55.339 10.4515 62.1007 3.7263C68.8624 -2.99892 74.2903 1.43258 74.2903 1.43258L77.3899 1.30618C77.3899 1.30618 78.0363 3.76748 79.0787 2.43507C80.1211 1.10267 82.0048 5.95511 82.0048 5.95511C85.5008 12.3081 73.3813 13.7313 73.3813 13.7313C73.3813 13.7313 74.2564 16.5442 73.3669 17.1333C72.4773 17.7224 70.1007 19.9384 70.1007 19.9384L67.9734 21.5595L66.7092 19.616C66.7092 19.616 65.3887 18.5642 64.7215 19.006C64.0544 19.4479 64.9721 25.261 64.9721 25.261L62.8385 24.4267Z" fill="#2E2E41"/>
<path d="M50.7689 127.24L46.9223 185.135L56.3785 185.459L68.8799 127.725L50.7689 127.24Z" fill="#2E2E41"/>
<path d="M73.6881 126.916L69.8416 184.812L79.2978 185.135L91.7992 127.401L73.6881 126.916Z" fill="#2E2E41"/>
<path d="M48.4526 140.467L53.4866 77.4109L45.7667 44.576C45.1012 39.6951 48.1491 35.0767 52.8531 33.8174L60.4071 31.7952L63.7506 28.4215L71.3555 45.367L76.1051 28.4344L79.8093 31.1526L90.7954 36.0432L90.7904 36.1577L89.0282 75.822L92.9618 139.906L92.7874 139.908L48.4526 140.467Z" fill="#E8E9EA"/>
<path d="M78.6906 184.477L81.4286 192.725C81.4286 192.725 92.1407 194.194 92.3073 197.541C92.474 200.887 77.7492 198.95 69.1269 199.387C60.5047 199.824 67.682 190.403 67.682 190.403L68.6008 184.989L78.6906 184.477Z" fill="#2E2E41"/>
<path d="M56.33 183.884L59.068 192.131C59.068 192.131 69.78 193.601 69.9467 196.947C70.1134 200.293 55.3886 198.356 46.7663 198.793C38.1441 199.231 45.3214 189.809 45.3214 189.809L46.2402 184.395L56.33 183.884Z" fill="#2E2E41"/>
<path d="M42.9713 106.979C42.8552 105.353 43.1268 103.722 43.7635 102.223L41.72 85.3088L49.725 84.5631L50.9358 101.801C51.7402 103.215 52.1976 104.802 52.2695 106.43C52.5049 110.503 50.6143 113.926 48.0463 114.077C45.4784 114.228 43.2061 111.05 42.9713 106.979Z" fill="#FDB4B4"/>
<path d="M93.673 109.461C93.5744 107.834 93.8637 106.207 94.5164 104.715L92.6558 87.7791L100.668 87.1215L101.693 104.372C102.482 105.794 102.922 107.386 102.977 109.015C103.168 113.09 101.24 116.492 98.671 116.615C96.1016 116.738 93.8638 113.535 93.673 109.461Z" fill="#FDB4B4"/>
<path d="M41.687 100.195L41.66 100.049L37.488 77.463L42.4176 40.6837C42.8575 37.4 45.7633 35.0347 49.0402 35.299C50.7514 35.4373 52.2868 36.2562 53.3638 37.6053C54.4407 38.9545 54.9067 40.6428 54.6758 42.3593L50.9656 69.9434L53.3016 99.4471L41.687 100.195Z" fill="#E8E9EA"/>
<path d="M91.2006 99.6652L82.8128 43.1711C82.3768 41.5145 82.632 39.781 83.5351 38.3078C84.4381 36.8347 85.8613 35.8302 87.5426 35.4793C90.7591 34.8081 93.9353 36.792 94.7748 39.9951L102.833 98.9557L91.2006 99.6652Z" fill="#E8E9EA"/>
<path d="M71.6016 50.5312C72.1703 50.5312 72.6313 50.066 72.6313 49.4921C72.6313 48.9183 72.1703 48.4531 71.6016 48.4531C71.0329 48.4531 70.5718 48.9183 70.5718 49.4921C70.5718 50.066 71.0329 50.5312 71.6016 50.5312Z" fill="#D6D7D8"/>
<path d="M71.6016 58.3982C72.1703 58.3982 72.6313 57.933 72.6313 57.3592C72.6313 56.7853 72.1703 56.3201 71.6016 56.3201C71.0329 56.3201 70.5718 56.7853 70.5718 57.3592C70.5718 57.933 71.0329 58.3982 71.6016 58.3982Z" fill="#D6D7D8"/>
<path d="M71.6016 66.2653C72.1703 66.2653 72.6313 65.8001 72.6313 65.2262C72.6313 64.6524 72.1703 64.1872 71.6016 64.1872C71.0329 64.1872 70.5718 64.6524 70.5718 65.2262C70.5718 65.8001 71.0329 66.2653 71.6016 66.2653Z" fill="#D6D7D8"/>
<path d="M71.6016 74.1323C72.1703 74.1323 72.6313 73.6671 72.6313 73.0933C72.6313 72.5194 72.1703 72.0542 71.6016 72.0542C71.0329 72.0542 70.5718 72.5194 70.5718 73.0933C70.5718 73.6671 71.0329 74.1323 71.6016 74.1323Z" fill="#D6D7D8"/>
<path d="M71.6016 81.9994C72.1703 81.9994 72.6313 81.5342 72.6313 80.9603C72.6313 80.3865 72.1703 79.9213 71.6016 79.9213C71.0329 79.9213 70.5718 80.3865 70.5718 80.9603C70.5718 81.5342 71.0329 81.9994 71.6016 81.9994Z" fill="#D6D7D8"/>
<path d="M71.6016 89.8664C72.1703 89.8664 72.6313 89.4013 72.6313 88.8274C72.6313 88.2536 72.1703 87.7884 71.6016 87.7884C71.0329 87.7884 70.5718 88.2536 70.5718 88.8274C70.5718 89.4013 71.0329 89.8664 71.6016 89.8664Z" fill="#D6D7D8"/>
<path d="M71.6016 97.7335C72.1703 97.7335 72.6313 97.2683 72.6313 96.6944C72.6313 96.1206 72.1703 95.6554 71.6016 95.6554C71.0329 95.6554 70.5718 96.1206 70.5718 96.6944C70.5718 97.2683 71.0329 97.7335 71.6016 97.7335Z" fill="#D6D7D8"/>
<path d="M71.6016 105.601C72.1703 105.601 72.6313 105.135 72.6313 104.562C72.6313 103.988 72.1703 103.522 71.6016 103.522C71.0329 103.522 70.5718 103.988 70.5718 104.562C70.5718 105.135 71.0329 105.601 71.6016 105.601Z" fill="#D6D7D8"/>
<path d="M71.6028 111.686L52.1185 109.066L51.7433 109.016L41.7853 85.8482L35.855 72.0548H51.3017L71.6028 111.686Z" fill="#00BFA6"/>
<path d="M149.724 23.7755L162.112 16.928V36.4921H147.786L149.724 23.7755Z" fill="#2E2E41"/>
<path d="M164.768 28.1373L165.911 37.7421L157.672 54.298L152.558 38.8888L154.962 27.8182L164.768 28.1373Z" fill="#FDB4B4"/>
<path d="M166.337 38.3155H152.111V55.6598H166.337V38.3155Z" fill="#00BFA6"/>
<path d="M178.074 130.166L181.788 186.075L172.657 186.387L160.584 130.635L178.074 130.166Z" fill="#2E2E41"/>
<path d="M155.941 129.854L159.656 185.763L150.524 186.075L138.451 130.322L155.941 129.854Z" fill="#2E2E41"/>
<path d="M187.721 142.024L187.504 142.024L129.33 141.832L129.383 141.624L144.339 81.833L140.592 51.6587C139.883 45.941 142.916 40.5366 148.141 38.2108L150.027 37.3712L153.61 34.7418L158.195 51.0861L165.536 34.7291L168.769 37.9916L176.062 39.944C180.608 41.1608 183.553 45.6235 182.913 50.3244L182.905 50.3572L171.767 82.4233L187.721 142.024Z" fill="#E8E9EA"/>
<path d="M151.11 185.44L160.854 185.934L161.741 191.162C161.741 191.162 168.672 200.26 160.346 199.838C152.019 199.416 137.8 201.286 137.961 198.055C138.122 194.823 148.466 193.404 148.466 193.404L151.11 185.44Z" fill="#2E2E41"/>
<path d="M172.703 184.866L182.447 185.361L183.334 190.589C183.334 190.589 190.265 199.687 181.939 199.265C173.613 198.842 159.393 200.713 159.554 197.481C159.715 194.25 170.059 192.831 170.059 192.831L172.703 184.866Z" fill="#2E2E41"/>
<path d="M181.626 110.027C181.399 113.959 179.205 117.028 176.725 116.882C174.245 116.736 172.42 113.43 172.647 109.497C172.716 107.925 173.158 106.392 173.935 105.027L175.104 88.3806L182.834 89.1008L180.861 105.435C181.476 106.882 181.738 108.457 181.626 110.027Z" fill="#FDB4B4"/>
<path d="M141.901 108.532C141.591 112.458 139.333 115.479 136.856 115.28C134.38 115.081 132.625 111.737 132.935 107.809C133.037 106.239 133.511 104.716 134.317 103.368L135.837 86.7504L143.55 87.6365L141.233 103.925C141.817 105.385 142.046 106.964 141.901 108.532Z" fill="#FDB4B4"/>
<path d="M182.871 103.482L171.644 102.759L171.658 102.59L173.9 74.2627L170.318 47.6258C170.094 45.9667 170.545 44.3347 171.586 43.0307C172.626 41.7266 174.111 40.9349 175.765 40.8013C178.932 40.5493 181.741 42.8323 182.166 46.0061L186.927 81.5244L186.922 81.5509L182.871 103.482Z" fill="#E8E9EA"/>
<path d="M143.77 102.397L132.525 101.711L132.55 101.532L140.304 44.7872C141.119 41.6706 144.191 39.7536 147.298 40.4021C148.924 40.7412 150.299 41.7122 151.172 43.1362C152.045 44.5603 152.292 46.2358 151.867 47.8544L143.77 102.397Z" fill="#E8E9EA"/>
<path d="M157.956 56.0898C158.505 56.0898 158.95 55.6406 158.95 55.0864C158.95 54.5323 158.505 54.083 157.956 54.083C157.407 54.083 156.961 54.5323 156.961 55.0864C156.961 55.6406 157.407 56.0898 157.956 56.0898Z" fill="#D6D7D8"/>
<path d="M157.956 63.6869C158.505 63.6869 158.95 63.2377 158.95 62.6835C158.95 62.1294 158.505 61.6801 157.956 61.6801C157.407 61.6801 156.961 62.1294 156.961 62.6835C156.961 63.2377 157.407 63.6869 157.956 63.6869Z" fill="#D6D7D8"/>
<path d="M157.956 71.284C158.505 71.284 158.95 70.8348 158.95 70.2806C158.95 69.7265 158.505 69.2773 157.956 69.2773C157.407 69.2773 156.961 69.7265 156.961 70.2806C156.961 70.8348 157.407 71.284 157.956 71.284Z" fill="#D6D7D8"/>
<path d="M157.956 78.8812C158.505 78.8812 158.95 78.4319 158.95 77.8778C158.95 77.3236 158.505 76.8744 157.956 76.8744C157.407 76.8744 156.961 77.3236 156.961 77.8778C156.961 78.4319 157.407 78.8812 157.956 78.8812Z" fill="#D6D7D8"/>
<path d="M157.956 86.4783C158.505 86.4783 158.95 86.0291 158.95 85.4749C158.95 84.9207 158.505 84.4715 157.956 84.4715C157.407 84.4715 156.961 84.9207 156.961 85.4749C156.961 86.0291 157.407 86.4783 157.956 86.4783Z" fill="#D6D7D8"/>
<path d="M157.956 94.0754C158.505 94.0754 158.95 93.6262 158.95 93.072C158.95 92.5178 158.505 92.0686 157.956 92.0686C157.407 92.0686 156.961 92.5178 156.961 93.072C156.961 93.6262 157.407 94.0754 157.956 94.0754Z" fill="#D6D7D8"/>
<path d="M157.956 101.672C158.505 101.672 158.95 101.223 158.95 100.669C158.95 100.115 158.505 99.6657 157.956 99.6657C157.407 99.6657 156.961 100.115 156.961 100.669C156.961 101.223 157.407 101.672 157.956 101.672Z" fill="#D6D7D8"/>
<path d="M157.956 109.27C158.505 109.27 158.95 108.82 158.95 108.266C158.95 107.712 158.505 107.263 157.956 107.263C157.407 107.263 156.961 107.712 156.961 108.266C156.961 108.82 157.407 109.27 157.956 109.27Z" fill="#D6D7D8"/>
<path d="M159.465 33.0392C164.603 33.0392 168.767 28.8373 168.767 23.6539C168.767 18.4706 164.603 14.2687 159.465 14.2687C154.328 14.2687 150.164 18.4706 150.164 23.6539C150.164 28.8373 154.328 33.0392 159.465 33.0392Z" fill="#FDB4B4"/>
<path d="M164.34 12.6979C164.786 13.6125 164.079 14.755 163.143 15.1396C162.208 15.5241 161.151 15.3683 160.153 15.2083C159.156 15.0482 158.098 14.8964 157.165 15.2878C155.958 15.7941 155.278 17.0644 154.692 18.2431C153.597 20.4436 152.503 22.6441 151.409 24.8446C150.874 25.9197 150.327 27.0432 150.317 28.246C150.298 30.4539 152.034 32.2184 152.968 34.2152C154.105 36.6464 154.011 39.6258 152.723 41.9793C151.436 44.3328 148.987 46.0003 146.342 46.3247C145.646 46.41 144.91 46.4008 144.284 46.0818C143.658 45.7628 143.181 45.0662 143.297 44.3686C143.523 43.0041 145.589 42.6853 145.969 41.3559C146.167 40.6619 145.816 39.9208 145.343 39.3788C144.87 38.8367 144.272 38.4139 143.821 37.8532C142.781 36.5604 142.711 34.5646 143.659 33.2015C144.217 32.4004 145.078 31.8052 145.438 30.8965C145.745 30.1219 145.634 29.2512 145.518 28.4253C145.368 27.3641 145.219 26.3028 145.069 25.2416C144.895 24.0034 144.724 22.7208 145.068 21.5195C145.857 18.7665 148.938 17.4735 150.745 15.2622C151.584 14.2346 152.149 12.9987 153.01 11.9896C154.456 10.2962 156.731 9.36206 158.938 9.55625C161.144 9.75044 163.225 11.068 164.358 12.9883" fill="#2E2E41"/>
<path d="M162.872 12.8715C162.417 13.0354 162.248 13.6326 162.379 14.1014C162.51 14.5701 162.853 14.9426 163.166 15.3128C166.712 19.4999 167.536 25.8334 165.182 30.8022C164.556 32.1239 163.721 33.3677 163.384 34.7925C163.138 35.8292 163.151 36.9663 162.581 37.8638C162.001 38.7775 160.851 39.3897 160.737 40.4689C160.664 41.1614 161.082 41.8341 161.643 42.2401C162.204 42.6461 162.889 42.8319 163.563 42.9833C165.314 43.377 167.104 43.592 168.898 43.6238C169.483 43.6342 170.086 43.6214 170.622 43.3863C171.159 43.1512 171.617 42.6413 171.623 42.0512C171.628 41.5874 171.363 41.1596 171.329 40.6971C171.227 39.3111 173.076 38.5737 173.436 37.2323C173.673 36.3504 173.206 35.4429 172.709 34.6791C172.212 33.9153 171.645 33.1132 171.657 32.1996C171.669 31.325 172.213 30.5547 172.425 29.7064C172.717 28.5331 172.358 27.3058 172.001 26.1506C171.699 25.1684 171.396 24.1863 171.093 23.2041C170.771 22.1601 170.449 21.116 170.127 20.072C169.564 18.2493 168.974 16.3737 167.758 14.9118C166.541 13.4499 164.525 12.4918 162.728 13.0886" fill="#2E2E41"/>
<path d="M169.21 49.2394L168.572 49.0519C169.9 44.4568 167.037 35.8816 167.008 35.7956L167.636 35.5793C167.758 35.939 170.596 44.443 169.21 49.2394Z" fill="#3F3C57"/>
<path d="M168.891 54.5174C170.423 54.5174 171.665 53.2643 171.665 51.7184C171.665 50.1726 170.423 48.9195 168.891 48.9195C167.359 48.9195 166.117 50.1726 166.117 51.7184C166.117 53.2643 167.359 54.5174 168.891 54.5174Z" fill="#3F3C57"/>
<path d="M150.665 61.6275H148.982C148.799 61.6275 148.65 61.4775 148.65 61.2925C148.65 61.1075 148.799 60.9575 148.982 60.9575H150.665C151.128 60.9575 151.564 60.7752 151.891 60.4441C152.218 60.1132 152.398 59.6733 152.397 59.2057L152.377 48.7504C152.377 46.4791 150.546 44.6318 148.296 44.6318C146.045 44.6318 144.214 46.4791 144.214 48.7497L144.235 58.536C144.237 59.4907 145.008 60.2733 145.954 60.2807L147.109 60.2895C147.292 60.291 147.44 60.442 147.439 60.6272C147.437 60.8112 147.289 60.9596 147.106 60.9596H147.104L145.949 60.9507C144.64 60.9406 143.573 59.8578 143.571 58.5373L143.55 48.7504C143.55 46.1097 145.679 43.9617 148.296 43.9617C150.912 43.9617 153.041 46.1097 153.041 48.7497L153.062 59.2044C153.063 59.8512 152.814 60.4596 152.361 60.9174C151.908 61.3753 151.306 61.6275 150.665 61.6275Z" fill="#3F3C57"/>
<path d="M147.107 61.812C147.757 61.812 148.283 61.2804 148.283 60.6246C148.283 59.9687 147.757 59.4371 147.107 59.4371C146.457 59.4371 145.93 59.9687 145.93 60.6246C145.93 61.2804 146.457 61.812 147.107 61.812Z" fill="#3F3C57"/>
<path d="M148.982 62.48C149.632 62.48 150.159 61.9484 150.159 61.2925C150.159 60.6367 149.632 60.105 148.982 60.105C148.332 60.105 147.805 60.6367 147.805 61.2925C147.805 61.9484 148.332 62.48 148.982 62.48Z" fill="#3F3C57"/>
<path d="M81.0423 44.2173L80.4048 44.0298C81.733 39.4347 78.9013 30.7267 78.8724 30.6407L79.6693 31.2468C79.7909 31.6065 82.4288 39.4209 81.0423 44.2173Z" fill="#3F3C57"/>
<path d="M58.6327 45.0337L59.2702 44.8462C57.942 40.2511 60.8059 31.6759 60.8347 31.5899L60.1528 32.0508C60.0312 32.4105 57.2461 40.2373 58.6327 45.0337Z" fill="#3F3C57"/>
<path d="M80.7236 49.4953C82.2556 49.4953 83.4975 48.2422 83.4975 46.6964C83.4975 45.1506 82.2556 43.8975 80.7236 43.8975C79.1916 43.8975 77.9496 45.1506 77.9496 46.6964C77.9496 48.2422 79.1916 49.4953 80.7236 49.4953Z" fill="#3F3C57"/>
<path d="M61.59 62.246H59.9077C59.7242 62.246 59.5757 62.096 59.5757 61.911C59.5757 61.7259 59.7242 61.5759 59.9077 61.5759H61.59C62.0537 61.5759 62.4892 61.3937 62.8167 61.0626C63.1438 60.7316 63.3238 60.2917 63.3228 59.8242L63.3024 49.3689C63.3024 47.0976 61.4716 45.2503 59.2212 45.2503C56.9709 45.2503 55.1398 47.0975 55.1398 49.3682L55.1602 59.1544C55.1621 60.1092 55.9336 60.8918 56.8798 60.8991L58.0345 60.908C58.2177 60.9094 58.3652 61.0604 58.3639 61.2456C58.3626 61.4297 58.2141 61.578 58.0319 61.578H58.0293L56.8746 61.5692C55.5659 61.5591 54.4987 60.4763 54.4961 59.1557L54.4757 49.3689C54.4757 46.7282 56.6045 44.5802 59.2212 44.5802C61.8377 44.5802 63.9665 46.7282 63.9665 49.3682L63.9869 59.8229C63.9882 60.4697 63.7395 61.0781 63.2865 61.5358C62.8338 61.9937 62.231 62.246 61.59 62.246Z" fill="#3F3C57"/>
<path d="M58.032 62.4305C58.6819 62.4305 59.2088 61.8989 59.2088 61.243C59.2088 60.5872 58.6819 60.0555 58.032 60.0555C57.382 60.0555 56.8551 60.5872 56.8551 61.243C56.8551 61.8989 57.382 62.4305 58.032 62.4305Z" fill="#3F3C57"/>
<path d="M59.9076 63.0985C60.5576 63.0985 61.0845 62.5668 61.0845 61.911C61.0845 61.2552 60.5576 60.7235 59.9076 60.7235C59.2576 60.7235 58.7307 61.2552 58.7307 61.911C58.7307 62.5668 59.2576 63.0985 59.9076 63.0985Z" fill="#3F3C57"/>
</g>
<defs>
<clipPath id="clip0_1_64">
<rect width="230" height="200" fill="white"/>
</clipPath>
</defs>
</svg>
