<svg width="26" height="26" viewBox="0 0 26 26" fill="none" xmlns="http://www.w3.org/2000/svg">
<g clip-path="url(#clip0_8_139)">
<path d="M15.1667 8.66666H5.05557C4.86402 8.66666 4.68032 8.59057 4.54488 8.45513C4.40943 8.31968 4.33334 8.13598 4.33334 7.94444V5.05555C4.33334 4.86401 4.40943 4.68031 4.54488 4.54486C4.68032 4.40942 4.86402 4.33333 5.05557 4.33333H15.1667C15.3582 4.33333 15.5419 4.40942 15.6774 4.54486C15.8128 4.68031 15.8889 4.86401 15.8889 5.05555V7.94444C15.8889 8.13598 15.8128 8.31968 15.6774 8.45513C15.5419 8.59057 15.3582 8.66666 15.1667 8.66666ZM5.77779 7.22222H14.4445V5.73444H5.77779V7.22222Z" fill="black"/>
<path d="M15.1667 10.1689H5.05557C4.86402 10.1689 4.68032 10.245 4.54488 10.3804C4.40943 10.5159 4.33334 10.6996 4.33334 10.8911V13.7222C4.33334 13.9138 4.40943 14.0975 4.54488 14.2329C4.68032 14.3683 4.86402 14.4444 5.05557 14.4444H13.26L15.8889 11.7722V10.8911C15.8889 10.6996 15.8128 10.5159 15.6774 10.3804C15.5419 10.245 15.3582 10.1689 15.1667 10.1689ZM14.4445 13H5.77779V11.5556H14.4445V13Z" fill="black"/>
<path d="M7.98779 22.7572V22.7139L8.2189 21.71H2.8889V2.88889H17.3333V10.2917L18.7778 8.92666V2.16666C18.7778 1.97512 18.7017 1.79142 18.5663 1.65598C18.4308 1.52053 18.2471 1.44444 18.0556 1.44444H2.16668C1.97514 1.44444 1.79143 1.52053 1.65599 1.65598C1.52055 1.79142 1.44446 1.97512 1.44446 2.16666V22.3889C1.44446 22.5804 1.52055 22.7641 1.65599 22.8996C1.79143 23.035 1.97514 23.1111 2.16668 23.1111H7.94446C7.95041 22.9923 7.96489 22.874 7.98779 22.7572Z" fill="black"/>
<path d="M15.8889 13.845L15.3256 14.4156C15.4653 14.3867 15.5934 14.3172 15.6937 14.2156C15.7939 14.1141 15.8619 13.9851 15.8889 13.845Z" fill="black"/>
<path d="M4.33334 19.4567C4.33334 19.6482 4.40943 19.8319 4.54488 19.9674C4.68032 20.1028 4.86402 20.1789 5.05557 20.1789H8.55112L8.76779 19.24L8.86168 18.8428V18.8067H5.77779V17.3333H10.3567L11.8011 15.8889H5.05557C4.86402 15.8889 4.68032 15.965 4.54488 16.1004C4.40943 16.2359 4.33334 16.4196 4.33334 16.6111V19.4567Z" fill="black"/>
<path d="M24.1872 12.0394L21.7533 9.60555C21.6453 9.49724 21.517 9.41131 21.3757 9.35267C21.2344 9.29404 21.083 9.26385 20.93 9.26385C20.777 9.26385 20.6256 9.29404 20.4843 9.35267C20.343 9.41131 20.2147 9.49724 20.1067 9.60555L10.205 19.565L9.38889 23.0389C9.35833 23.1888 9.35764 23.3432 9.38686 23.4933C9.41608 23.6434 9.47464 23.7863 9.55917 23.9138C9.6437 24.0413 9.75255 24.1508 9.87948 24.2362C10.0064 24.3215 10.1489 24.3809 10.2989 24.4111C10.3733 24.4186 10.4483 24.4186 10.5228 24.4111C10.6113 24.4255 10.7015 24.4255 10.79 24.4111L14.2928 23.6383L24.1872 13.7222C24.2953 13.6148 24.3811 13.4871 24.4396 13.3464C24.4982 13.2057 24.5283 13.0549 24.5283 12.9025C24.5283 12.7501 24.4982 12.5993 24.4396 12.4586C24.3811 12.3179 24.2953 12.1902 24.1872 12.0828V12.0394ZM13.5561 22.3239L10.9128 22.9089L11.5556 20.2872L18.98 12.7833L21.0167 14.82L13.5561 22.3239ZM21.8328 14.0039L19.7961 11.9672L20.9444 10.8333L22.9956 12.8844L21.8328 14.0039Z" fill="black"/>
</g>
<defs>
<clipPath id="clip0_8_139">
<rect width="26" height="26" fill="white"/>
</clipPath>
</defs>
</svg>
