<svg width="26" height="26" viewBox="0 0 26 26" fill="none" xmlns="http://www.w3.org/2000/svg">
<path d="M13 2.16667C16.5858 2.16667 19.5 5.04833 19.5 8.6125C19.5 13.4442 13 20.5833 13 20.5833C13 20.5833 6.50001 13.4442 6.50001 8.6125C6.50001 5.04833 9.41418 2.16667 13 2.16667ZM13 6.5C12.4254 6.5 11.8743 6.72827 11.4679 7.1346C11.0616 7.54093 10.8333 8.09203 10.8333 8.66667C10.8333 9.2413 11.0616 9.7924 11.4679 10.1987C11.8743 10.6051 12.4254 10.8333 13 10.8333C13.5746 10.8333 14.1257 10.6051 14.5321 10.1987C14.9384 9.7924 15.1667 9.2413 15.1667 8.66667C15.1667 8.09203 14.9384 7.54093 14.5321 7.1346C14.1257 6.72827 13.5746 6.5 13 6.5ZM21.6667 20.5833C21.6667 22.9775 17.7883 24.9167 13 24.9167C8.21168 24.9167 4.33334 22.9775 4.33334 20.5833C4.33334 19.1858 5.65501 17.94 7.70251 17.1492L8.39584 18.135C7.22584 18.6225 6.50001 19.2942 6.50001 20.0417C6.50001 21.5367 9.41418 22.75 13 22.75C16.5858 22.75 19.5 21.5367 19.5 20.0417C19.5 19.2942 18.7742 18.6225 17.6042 18.135L18.2975 17.1492C20.345 17.94 21.6667 19.1858 21.6667 20.5833Z" fill="#00BFA6"/>
</svg>
